<?xml version="1.0" encoding="iso-8859-1"?>
<!-- Generator: Adobe Illustrator 16.0.0, SVG Export Plug-In . SVG Version: 6.00 Build 0)  -->
<!DOCTYPE svg PUBLIC "-//W3C//DTD SVG 1.1//EN" "http://www.w3.org/Graphics/SVG/1.1/DTD/svg11.dtd">
<svg version="1.1" id="Capa_1" xmlns="http://www.w3.org/2000/svg" xmlns:xlink="http://www.w3.org/1999/xlink" x="0px" y="0px"
	 width="512px" height="512px" viewBox="0 0 512 512" style="enable-background:new 0 0 512 512;" xml:space="preserve">
<g>
	<path d="M304,100c6.625,0,12-5.375,12-12s-5.375-12-12-12h-36V64c0-6.625-5.391-12-12-12c-6.609,0-12,5.375-12,12v12h-12
		c-14.484,0-36,9.563-36,36v24c0,26.438,21.516,36,36,36h12v48h-36c-6.609,0-12,5.375-12,12s5.391,12,12,12h36v12
		c0,6.625,5.391,12,12,12c6.609,0,12-5.375,12-12v-12h12c14.5,0,36-9.563,36-36v-24c0-26.438-21.5-36-36-36h-12v-48H304z M244,148
		h-12c-5.391-0.125-12-2.344-12-12v-24c0-9.656,6.609-11.875,12-12h12V148z M280,172c5.391,0.125,12,2.344,12,12v24
		c0,9.656-6.609,11.875-12,12h-12v-48H280z M448,0H64L0,320h512L448,0z M416,288H96c0-28.625-18.922-52.438-44.859-60.563
		l26.89-134.406C83.75,94.813,89.688,96,96,96c35.344,0,64-28.656,64-64h192c0,35.344,28.656,64,64,64
		c6.312,0,12.281-1.188,18-2.938l26.844,134.344C434.938,235.563,416,259.375,416,288z M0,352h512v32H0V352z M0,416h512v32H0V416z
		 M0,480h512v32H0V480z"/>
</g>
<g>
</g>
<g>
</g>
<g>
</g>
<g>
</g>
<g>
</g>
<g>
</g>
<g>
</g>
<g>
</g>
<g>
</g>
<g>
</g>
<g>
</g>
<g>
</g>
<g>
</g>
<g>
</g>
<g>
</g>
</svg>
